<?xml version="1.0" standalone="no"?>
<!DOCTYPE svg PUBLIC "-//W3C//DTD SVG 20010904//EN"
 "http://www.w3.org/TR/2001/REC-SVG-20010904/DTD/svg10.dtd">
<svg version="1.0" xmlns="http://www.w3.org/2000/svg"
 width="128.000000pt" height="128.000000pt" viewBox="0 0 128.000000 128.000000"
 preserveAspectRatio="xMidYMid meet">

<g transform="translate(0.000000,128.000000) scale(0.100000,-0.100000)"
fill="#000000" stroke="none">
<path d="M335 1201 c-35 -15 -60 -51 -196 -286 -117 -202 -133 -235 -133 -275
0 -40 16 -73 137 -281 75 -129 148 -246 163 -260 l26 -24 308 0 308 0 26 24
c15 14 88 131 163 260 121 208 137 241 137 281 0 40 -16 73 -137 281 -75 129
-148 246 -163 260 l-26 24 -296 2 c-163 1 -306 -2 -317 -6z"/>
</g>
</svg>
